HIERARCHY
ROOT hip
{
	OFFSET 0.000000 0.000000 0.000000 
	CHANNELS 6 Xposition Yposition Zposition Xrotation Zrotation Yrotation
	JOINT abdomen
	{
		OFFSET 0.000000 3.402643 0.000000 
		CHANNELS 3 Xrotation Zrotation Yrotation
		JOINT chest
		{
			OFFSET 0.000000 8.438565 -0.680529 
			CHANNELS 3 Xrotation Zrotation Yrotation
			JOINT neck
			{
				OFFSET 0.000000 10.207942 -0.272212 
				CHANNELS 3 Xrotation Zrotation Yrotation
				JOINT head
				{
					OFFSET 0.000000 3.130431 0.000000 
					CHANNELS 3 Xrotation Zrotation Yrotation
					End Site
					{
						OFFSET 0.000000 3.130435 0.000000 
					}
				}
			}
			JOINT lCollar
			{
				OFFSET 3.470700 6.669187 -0.816635 
				CHANNELS 3 Yrotation Zrotation Xrotation
				JOINT lShldr
				{
					OFFSET 3.198488 0.000000 0.000000 
					CHANNELS 3 Zrotation Yrotation Xrotation
					JOINT lForeArm
					{
						OFFSET 10.139888 0.000000 0.000000 
						CHANNELS 3 Yrotation Zrotation Xrotation
						JOINT lHand
						{
							OFFSET 8.370511 0.000000 0.000000 
							CHANNELS 3 Zrotation Yrotation Xrotation
							End Site
							{
								OFFSET 4.083176 0.000000 0.000000 
							}
						}
					}
				}
			}
			JOINT rCollar
			{
				OFFSET -3.470700 6.669187 -0.816635 
				CHANNELS 3 Yrotation Zrotation Xrotation
				JOINT rShldr
				{
					OFFSET -3.198488 0.000000 0.000000 
					CHANNELS 3 Zrotation Yrotation Xrotation
					JOINT rForeArm
					{
						OFFSET -10.139888 0.000000 0.000000 
						CHANNELS 3 Yrotation Zrotation Xrotation
						JOINT rHand
						{
							OFFSET -8.370511 0.000000 0.000000 
							CHANNELS 3 Zrotation Yrotation Xrotation
							End Site
							{
								OFFSET -4.083176 0.000000 0.000000 
							}
						}
					}
				}
			}
		}
	}
	JOINT lThigh
	{
		OFFSET 5.308129 -1.633274 1.361059 
		CHANNELS 3 Xrotation Zrotation Yrotation
		JOINT lShin
		{
			OFFSET -2.041588 -20.007561 0.000000 
			CHANNELS 3 Xrotation Zrotation Yrotation
			JOINT lFoot
			{
				OFFSET 0.000000 -19.190928 -1.224953 
				CHANNELS 3 Xrotation Yrotation Zrotation
				End Site
				{
					OFFSET 0.000000 -2.449906 4.627600 
				}
			}
		}
	}
	JOINT rThigh
	{
		OFFSET -5.308129 -1.633274 1.361059 
		CHANNELS 3 Xrotation Zrotation Yrotation
		JOINT rShin
		{
			OFFSET 2.041588 -20.007561 0.000000 
			CHANNELS 3 Xrotation Zrotation Yrotation
			JOINT rFoot
			{
				OFFSET 0.000000 -19.190928 -1.224953 
				CHANNELS 3 Xrotation Yrotation Zrotation
				End Site
				{
					OFFSET 0.000000 -2.449906 4.627600 
				}
			}
		}
	}
}
MOTION
Frames: 13
Frame Time: 0.011111
32.409134 60.411804 -49.777523 4.673879 -3.669716 -7.109828 14.138691 5.115206 -1.274377 -13.538669 -2.312398 -1.140886 -10.825906 -8.359784 -6.004421 6.567509 18.108620 -13.977385 -3.413843 -5.192144 0.282785 -64.613747 -31.567331 1.874990 -52.972557 8.323001 9.372746 8.524705 12.647240 116.500595 7.531429 2.224408 -0.396538 66.789314 15.611473 4.664257 54.154587 -8.544184 9.879675 -8.534408 -12.637552 50.326031 -16.139265 13.239895 -4.096349 43.446209 -4.377565 -6.482311 -33.306622 -14.913718 -11.262506 -8.078999 -3.025626 5.905237 30.027592 5.307306 4.850456 -34.132008 2.414987 2.525884 
32.392590 60.433655 -49.829033 4.792918 -3.554730 -6.795325 14.087978 4.930686 -1.567445 -13.627476 -2.200251 -1.194251 -10.569866 -8.290030 -6.022061 6.259066 18.046181 -14.000604 -3.413843 -5.192144 0.282785 -64.542915 -31.601440 1.847234 -52.972557 8.323001 9.372746 8.524705 12.647240 116.442009 7.531429 2.224408 -0.396538 66.903389 15.360701 6.288453 53.963428 -8.504690 9.786078 -8.534408 -12.637552 48.421734 -16.409107 13.266731 -3.796920 43.456314 -4.361016 -6.505980 -32.847439 -14.882823 -11.168568 -8.236852 -3.065208 6.074278 29.967066 5.321767 4.809986 -34.393703 2.067783 2.299717 
32.381351 60.450512 -49.879921 4.892946 -3.474941 -6.453108 14.085757 4.799431 -1.871080 -13.804283 -2.078515 -1.263212 -10.284039 -8.196336 -6.037525 6.094152 17.910990 -13.992238 -3.413843 -5.192144 0.282785 -64.546814 -31.464520 1.901398 -53.046017 8.334805 9.394245 8.524705 12.647240 116.510361 7.531429 2.224408 -0.396538 66.997444 15.048042 7.821748 53.784222 -8.473549 9.711686 -8.534408 -12.637552 46.507671 -16.666666 13.259477 -3.698720 43.426434 -4.370810 -6.497430 -32.498657 -14.987633 -11.176744 -8.383599 -3.104114 6.126505 29.947050 5.316713 4.836100 -34.616180 1.839084 2.104015 
32.350132 60.481106 -49.973270 5.074339 -3.441076 -5.737025 14.138533 4.727390 -2.489110 -14.148251 -1.787531 -1.399111 -10.214517 -8.162190 -6.064083 6.136704 17.675369 -14.024952 -3.413843 -5.192144 0.282785 -64.619583 -31.312944 1.998144 -53.140965 8.353693 9.436150 8.524705 12.647240 116.666611 7.531429 2.224408 -0.396538 67.024223 14.598041 10.107170 53.573757 -8.437690 9.625115 -8.534408 -12.637552 43.870949 -17.213909 13.396502 -3.548630 43.406609 -4.377478 -6.488568 -31.670683 -15.397288 -11.294409 -8.580151 -3.016557 6.360319 29.916981 5.316565 4.843151 -35.235409 1.492244 1.787842 
32.338894 60.498898 -50.016972 5.242411 -3.460001 -5.465844 14.071774 4.736248 -2.664984 -14.305243 -1.679014 -1.442748 -10.240720 -8.141982 -6.262191 6.006859 17.414848 -14.427155 -3.413843 -5.192144 0.282785 -64.665527 -31.237846 2.055861 -53.139633 8.348451 9.438164 8.524705 12.647240 116.852158 7.531429 2.224408 -0.396538 67.091202 14.202834 12.230476 53.416248 -8.411478 9.560707 -8.534408 -12.637552 41.488144 -17.550291 13.588160 -3.249643 43.377010 -4.370920 -6.502928 -31.112980 -15.681824 -11.388036 -8.744094 -2.947876 6.341356 29.937132 5.316668 4.835217 -35.426373 1.414948 1.683276 
32.361374 60.491096 -49.996990 5.201326 -3.386816 -5.662407 14.040643 4.665736 -2.480083 -14.246087 -1.760741 -1.393352 -10.208887 -8.140918 -6.444806 5.802985 17.353302 -14.830359 -3.413843 -5.192144 0.282785 -64.630089 -31.107899 2.262394 -53.203316 8.362891 9.469199 8.524705 12.647240 117.125603 7.531429 2.224408 -0.396538 67.119705 14.206709 12.140823 53.363300 -8.400887 9.540429 -8.534408 -12.637552 41.419781 -17.391409 13.436696 -3.324534 43.367001 -4.377610 -6.494915 -31.392376 -15.540695 -11.342464 -8.728586 -3.114728 6.100198 29.916981 5.316566 4.843151 -35.094688 1.555986 1.846596 
32.375416 60.481731 -49.977642 5.112071 -3.351542 -5.819950 14.054512 4.594145 -2.382380 -14.216428 -1.812274 -1.359902 -10.081285 -8.073240 -6.384234 5.696764 17.246042 -14.679306 -3.413843 -5.192144 0.282785 -64.599434 -31.027298 2.351177 -53.234585 8.367156 9.480158 8.524705 12.647240 117.242783 7.531429 2.224408 -0.396538 67.148201 14.210586 12.146431 53.321278 -8.393167 9.519934 -8.534408 -12.637552 41.390484 -17.203735 13.308341 -3.412597 43.367001 -4.377610 -6.494915 -31.701889 -15.396472 -11.311383 -8.658140 -3.212065 6.036803 29.907244 5.321501 4.814393 -34.921452 1.664506 1.951470 
32.379478 60.479233 -49.984810 5.112925 -3.433697 -5.778274 14.073172 4.695008 -2.412312 -14.323969 -1.803317 -1.375062 -10.004523 -8.089747 -6.312299 5.736067 17.258383 -14.533797 -3.413843 -5.192144 0.282785 -64.593666 -30.987684 2.317371 -53.150558 8.351430 9.437888 8.524705 12.647240 117.233025 7.531429 2.224408 -0.396538 67.133690 14.110000 12.240858 53.352371 -8.397965 9.540674 -8.534408 -12.637552 41.410015 -17.264452 13.387885 -3.500665 43.386219 -4.387275 -6.490527 -31.691572 -15.436172 -11.339136 -8.634740 -3.094088 6.124187 29.895792 5.331121 4.815878 -34.994141 1.598628 1.889698 
32.383846 60.477985 -49.996681 5.123608 -3.515747 -5.727469 14.112188 4.798649 -2.420739 -14.441255 -1.795529 -1.380228 -10.034929 -8.116683 -6.273980 5.858751 17.315210 -14.454316 -3.413843 -5.192144 0.282785 -64.608948 -30.929985 2.248795 -53.108364 8.344126 9.427236 8.524705 12.647240 117.154900 7.531429 2.224408 -0.396538 67.119171 14.009413 12.305945 53.383820 -8.401513 9.541935 -8.534408 -12.637552 41.458847 -17.317713 13.462428 -3.599470 43.406368 -4.380611 -6.489726 -31.715714 -15.457870 -11.347551 -8.604721 -2.986614 6.192383 29.867533 5.321583 4.810931 -35.095062 1.549337 1.841351 
32.388218 60.480171 -50.006668 5.124260 -3.559003 -5.682322 14.133040 4.820508 -2.394728 -14.509522 -1.816629 -1.379803 -10.006978 -8.156592 -6.241152 5.858226 17.437513 -14.395723 -3.413843 -5.192144 0.282785 -64.599373 -30.929296 2.190423 -53.045830 8.335420 9.403990 8.524705 12.647240 117.096298 7.531429 2.224408 -0.396538 67.135658 13.962351 12.285821 53.352554 -8.397349 9.530930 -8.534408 -12.637552 41.478374 -17.359507 13.483794 -3.671442 43.425674 -4.380641 -6.501094 -31.735872 -15.431692 -11.355223 -8.589609 -2.958212 6.153302 29.848015 5.321539 4.799475 -35.117542 1.491118 1.807918 
32.392277 60.479855 -50.016033 5.124910 -3.602260 -5.637174 14.133455 4.838786 -2.390415 -14.538826 -1.817335 -1.378874 -10.019742 -8.229023 -6.136579 5.945971 17.631559 -14.183793 -3.413843 -5.192144 0.282785 -64.547714 -30.964783 2.220828 -53.013424 8.325161 9.385370 8.524705 12.647240 117.037712 7.531429 2.224408 -0.396538 67.130341 13.932044 12.278996 53.363300 -8.400887 9.540429 -8.534408 -12.637552 41.546734 -17.408041 13.522706 -3.706808 43.426247 -4.377515 -6.490272 -31.694841 -15.450675 -11.349813 -8.592474 -2.919690 6.162187 29.848015 5.321543 4.799475 -35.131920 1.398915 1.747119 
32.394463 60.480480 -50.029770 5.125314 -3.588028 -5.577074 14.141489 4.774365 -2.416486 -14.568339 -1.779125 -1.374549 -9.965602 -8.036582 -6.207751 5.778426 17.439768 -14.285479 -3.413843 -5.192144 0.282785 -64.511322 -30.942570 2.290081 -53.046017 8.334805 9.394245 8.524705 12.647240 116.949821 7.531429 2.224408 -0.396538 67.112740 13.919789 12.319233 53.405319 -8.408570 9.560943 -8.534408 -12.637552 41.644390 -17.468988 13.494966 -3.726074 43.416435 -4.377499 -6.489420 -31.611168 -15.507151 -11.361934 -8.606967 -2.908956 6.278969 29.848152 5.316616 4.817667 -35.222969 1.349743 1.686402 
32.398521 60.479233 -50.036018 5.105766 -3.534165 -5.541465 14.150588 4.684121 -2.421024 -14.578157 -1.769630 -1.373399 -9.802601 -8.145483 -6.161417 5.715302 17.703413 -14.210910 -3.413843 -5.192144 0.282785 -64.476837 -30.900896 2.325293 -53.066357 8.336170 9.405439 8.524705 12.647240 116.930283 7.531429 2.224408 -0.396538 67.133141 13.912701 12.337586 53.405319 -8.408570 9.560943 -8.534408 -12.637552 41.663925 -17.448225 13.425755 -3.728669 43.426434 -4.370809 -6.497430 -31.506437 -15.567165 -11.410095 -8.601230 -2.968352 6.309454 29.847698 5.321513 4.809171 -35.250214 1.396560 1.712253 
